<?xml version="1.0" standalone="no"?>
<!DOCTYPE svg PUBLIC "-//W3C//DTD SVG 20010904//EN"
 "http://www.w3.org/TR/2001/REC-SVG-20010904/DTD/svg10.dtd">
<svg version="1.0" xmlns="http://www.w3.org/2000/svg"
 width="269.000000pt" height="340.000000pt" viewBox="0 0 269.000000 340.000000"
 preserveAspectRatio="xMidYMid meet">

<g transform="translate(0.000000,340.000000) scale(0.100000,-0.100000)"
fill="#000000" stroke="none">
<path d="M1561 3341 c-53 -19 -131 -81 -101 -81 9 0 26 7 38 16 13 9 49 18 81
21 118 11 208 -34 230 -113 14 -49 14 -117 1 -109 -5 3 -54 17 -107 31 -54 14
-131 37 -172 50 -215 72 -419 45 -598 -78 -99 -68 -232 -228 -302 -366 -33
-64 -78 -110 -166 -167 -97 -63 -114 -81 -126 -135 -8 -33 -4 -64 17 -153 14
-62 28 -122 31 -134 4 -18 -1 -25 -23 -34 -145 -60 -151 -66 -161 -147 -7 -65
12 -126 54 -173 33 -36 35 -43 30 -84 -8 -58 -31 -93 -71 -105 -30 -10 -30
-10 8 -5 21 2 47 12 57 21 11 9 19 14 19 10 0 -5 -40 -47 -89 -96 -97 -95
-118 -137 -108 -212 10 -74 78 -128 141 -112 41 10 31 -1 -35 -41 -180 -110
-220 -258 -99 -365 33 -29 41 -44 46 -82 6 -44 5 -49 -27 -78 -72 -65 -79 -74
-79 -100 0 -46 76 -94 100 -64 7 7 19 14 26 14 26 0 14 -28 -20 -48 -77 -46
-114 -141 -86 -226 15 -46 83 -105 131 -112 34 -6 37 -10 43 -45 4 -27 11 -39
22 -39 15 0 16 17 10 158 -24 613 -21 645 67 716 30 24 41 28 55 20 22 -14 37
-104 51 -294 29 -393 62 -623 85 -599 3 2 -6 69 -19 148 -37 224 -74 663 -56
669 5 2 5 19 1 39 -7 30 -5 39 13 53 39 32 75 2 81 -67 3 -26 14 -113 26 -193
23 -155 23 -285 -1 -498 -6 -57 -8 -114 -5 -127 l6 -25 344 0 c266 0 345 3
348 13 9 22 -16 507 -28 572 -6 29 -23 75 -48 125 -7 14 -18 45 -25 70 -7 25
-17 53 -22 62 -7 13 -4 23 10 37 31 31 37 103 13 158 -18 42 -21 44 -31 26 -8
-17 -7 -26 9 -46 11 -14 20 -33 19 -44 0 -13 -2 -14 -6 -3 -11 27 -41 52 -54
45 -16 -11 -6 66 22 160 l20 70 127 -2 c125 -2 126 -2 80 13 -33 11 -60 29
-91 64 -48 53 -61 94 -51 151 5 23 3 31 -4 24 -10 -10 -16 -58 -13 -102 0 -13
24 -48 51 -78 28 -30 50 -57 50 -58 0 -2 -25 0 -54 3 -41 4 -69 16 -113 45
-77 54 -206 183 -199 201 4 11 2 12 -15 1 -16 -10 -21 -9 -29 3 -6 8 -8 23 -6
32 2 10 -1 15 -9 11 -18 -6 -31 24 -29 69 1 23 -3 35 -9 31 -6 -4 -8 0 -4 11
7 18 -5 31 -70 77 -41 28 -55 60 -33 74 5 3 10 22 10 41 0 39 14 44 31 12 7
-13 25 -40 41 -60 27 -35 28 -43 5 -39 -5 1 -6 -3 -2 -8 3 -6 12 -8 20 -4 8 3
23 -3 33 -14 25 -28 2 6 -31 45 -17 21 -26 40 -22 52 4 13 1 17 -12 16 -23 -1
-29 35 -12 75 14 36 29 33 51 -11 9 -18 24 -41 33 -49 15 -15 15 -13 1 14 -19
36 -21 86 -4 103 14 14 33 -18 43 -75 3 -21 13 -49 21 -63 14 -24 14 -24 8 13
-4 21 -2 37 3 37 23 0 69 -80 60 -104 -6 -15 -4 -15 17 -1 29 19 60 9 53 -17
-5 -18 -4 -18 11 -5 11 9 25 11 42 6 37 -11 62 -10 55 1 -3 6 -13 10 -22 10
-37 0 -144 61 -163 93 -37 59 -21 134 34 162 38 20 40 19 16 -13 -32 -43 -29
-105 7 -149 30 -38 67 -54 55 -25 -4 10 -7 12 -10 4 -2 -7 -8 -10 -12 -7 -5 3
-7 13 -4 23 5 13 4 14 -4 4 -7 -11 -10 -11 -15 2 -3 8 -2 18 4 21 5 4 6 11 3
17 -4 6 -3 8 3 5 6 -4 19 11 29 33 19 39 37 50 49 30 3 -5 2 -10 -3 -10 -6 0
-13 -12 -16 -26 -5 -20 -1 -31 15 -45 21 -18 23 -18 43 -2 12 10 24 22 28 28
4 5 16 -3 28 -18 27 -34 38 -34 46 -2 3 14 12 25 19 25 8 0 27 -11 43 -25 17
-14 35 -25 42 -25 12 0 11 4 -6 69 -6 22 -5 23 20 19 28 -6 27 -5 -10 33 -21
21 -34 42 -30 46 4 4 38 6 75 4 60 -2 73 1 118 27 56 33 139 90 196 134 20 16
37 26 37 22 0 -18 74 74 90 111 9 22 24 45 31 52 12 9 14 -4 14 -85 0 -54 4
-136 8 -183 l9 -86 -59 -7 c-49 -5 -65 -13 -103 -47 -44 -39 -44 -40 -15 -33
44 9 147 34 173 41 17 4 22 1 22 -13 0 -11 3 -29 6 -41 6 -21 4 -21 -68 -16
-42 3 -91 0 -115 -6 -42 -12 -110 -60 -85 -61 8 0 0 -12 -17 -26 -32 -26 -39
-48 -21 -59 6 -3 16 0 24 7 8 9 29 12 56 10 45 -5 44 -1 28 -73 -4 -21 46 -24
84 -5 17 9 37 16 45 16 7 0 13 9 13 20 0 24 27 37 42 22 30 -30 -54 -161 -103
-163 -13 0 -35 -2 -49 -4 -14 -1 -43 3 -65 11 -35 11 -38 11 -21 -2 11 -7 25
-14 32 -14 7 0 18 -8 23 -17 6 -10 11 -12 11 -5 0 17 29 15 37 -4 3 -8 12 -13
19 -10 7 3 16 0 20 -6 4 -7 10 -5 16 6 5 9 6 21 2 28 -4 6 -3 8 4 4 6 -3 12 2
15 11 4 17 4 17 11 1 10 -23 -49 -188 -85 -237 -34 -48 -141 -119 -241 -160
-92 -37 -102 -38 -116 -6 -14 30 -220 245 -236 245 -6 0 23 -35 65 -77 102
-107 136 -153 148 -204 14 -60 20 -189 10 -189 -5 0 -10 -8 -10 -17 -1 -10 -7
11 -15 47 l-13 65 4 -70 c17 -277 50 -418 155 -660 70 -161 159 -343 171 -350
20 -13 18 2 -12 75 l-30 75 32 90 c17 49 40 108 50 129 21 43 25 70 8 46 -16
-23 -3 74 16 109 8 16 37 59 65 95 27 36 50 69 50 74 0 4 17 26 37 48 20 21
33 30 29 20 -5 -16 -4 -17 9 -6 11 9 12 15 5 20 -6 4 -9 13 -7 21 2 8 2 11 0
7 -3 -5 -11 -8 -19 -8 -9 0 -13 -4 -10 -8 3 -5 -1 -9 -9 -9 -24 0 -17 15 13
31 58 30 165 -30 198 -111 8 -18 14 -57 14 -87 0 -81 -13 -125 -131 -459 -27
-75 -49 -142 -49 -147 0 -6 46 -10 115 -10 l115 0 11 27 c5 15 13 46 16 70 5
40 8 43 35 43 80 0 109 -68 53 -123 -15 -16 -15 -17 4 -17 26 0 58 31 67 64 6
27 -10 64 -37 84 -10 7 -26 37 -35 67 -20 63 -17 72 51 168 19 27 39 66 45 87
17 62 -10 220 -37 220 -8 0 -11 5 -8 10 4 6 15 8 25 5 10 -3 21 -1 25 5 4 6
-7 10 -29 10 -48 0 -144 37 -156 60 -18 33 -11 83 25 190 19 57 35 120 35 140
0 46 -60 146 -77 129 -8 -8 -18 -6 -37 6 -15 10 -25 20 -22 22 2 3 16 -3 31
-13 l27 -17 -4 29 c-2 16 -8 28 -15 27 -7 -2 -10 3 -7 11 3 7 -2 20 -10 29
-18 17 -21 32 -6 22 6 -3 10 -1 10 4 0 6 6 11 13 11 8 0 22 9 32 20 10 11 21
18 24 15 4 -2 15 12 26 31 10 19 22 34 26 34 14 0 26 55 18 78 -6 15 -5 21 1
17 15 -9 12 8 -6 33 -9 13 -13 30 -10 38 7 19 -17 57 -29 46 -5 -4 -5 -2 -1 5
3 6 -5 23 -19 38 -20 19 -24 31 -19 48 3 12 3 19 -2 14 -4 -4 -18 14 -31 40
-12 27 -23 43 -23 37 0 -29 33 -112 68 -172 33 -55 40 -77 41 -122 3 -106 -75
-184 -210 -214 l-64 -14 47 -1 48 -1 -23 -26 c-12 -14 -53 -44 -90 -66 -38
-22 -71 -46 -73 -53 -8 -19 12 -52 67 -113 29 -32 51 -66 55 -87 8 -44 -11
-99 -41 -119 -79 -52 -113 -62 -132 -41 -4 4 -2 5 5 1 7 -4 12 -1 12 8 0 8 10
21 23 27 30 16 77 60 77 74 0 12 -101 115 -113 115 -4 0 -7 -4 -7 -9 0 -5 -7
-24 -15 -44 -17 -41 -39 -41 -70 1 -43 59 0 213 86 307 36 39 54 49 126 71 91
28 136 61 168 123 20 41 13 64 -50 148 -24 32 -40 62 -35 66 4 5 29 -1 55 -12
27 -12 50 -20 51 -18 2 2 -25 25 -61 51 -59 43 -125 110 -125 127 0 4 9 9 20
12 29 7 25 25 -6 25 -35 -1 -55 22 -64 71 -8 45 5 61 49 61 12 0 21 6 21 14 0
11 -8 12 -34 6 -19 -4 -39 -4 -46 0 -16 10 -27 356 -12 398 17 50 -11 29 -75
-56 -133 -177 -236 -249 -413 -292 -52 -13 -100 -27 -106 -32 -8 -5 -17 -3
-26 6 -24 24 -156 86 -182 86 -37 0 -39 14 -6 34 30 17 50 13 82 -17 7 -7 26
-20 41 -30 15 -10 25 -23 21 -29 -4 -7 -3 -8 5 -4 6 4 18 2 26 -4 12 -10 20
-9 40 4 84 55 121 109 172 249 14 40 39 99 54 131 16 33 27 61 25 64 -6 6 -40
-62 -76 -153 -62 -157 -111 -235 -146 -235 -12 0 -46 11 -75 23 -30 13 -62 27
-73 30 -15 6 -16 10 -5 23 7 9 24 20 37 25 14 5 22 12 19 16 -4 3 8 22 26 42
47 52 97 127 90 135 -4 3 -2 6 4 6 6 0 28 21 48 48 l38 47 -56 -55 c-30 -30
-54 -57 -51 -61 4 -7 -161 -168 -216 -211 -81 -63 -237 -129 -344 -144 -58 -8
-43 -24 23 -24 l44 0 -38 -32 c-124 -105 -163 -157 -150 -205 4 -16 2 -22 -5
-18 -15 9 -13 -40 4 -79 8 -19 22 -39 33 -45 10 -6 14 -11 10 -11 -5 0 1 -12
12 -26 11 -15 19 -30 16 -34 -3 -4 3 -14 13 -21 16 -13 16 -13 2 6 -14 19 -14
19 2 6 10 -7 15 -18 12 -23 -3 -5 1 -17 10 -26 35 -39 46 -86 35 -151 -5 -33
-14 -72 -19 -87 -14 -35 -92 -167 -105 -176 -5 -4 -38 -8 -73 -8 -49 0 -66 4
-82 20 -33 33 0 81 104 152 80 55 96 73 96 109 0 42 -13 63 -88 144 -77 83
-116 156 -141 266 -11 45 -25 85 -31 89 -10 6 -10 40 -3 146 11 156 23 191 90
258 31 31 33 35 10 21 -15 -10 -32 -26 -38 -37 -5 -10 -14 -16 -18 -14 -26 16
-57 -163 -64 -374 -2 -36 -5 -72 -8 -80 -3 -8 -4 -12 -2 -7 3 4 9 5 14 1 5 -3
9 4 9 15 0 12 5 21 10 21 6 0 10 -10 10 -22 0 -68 52 -211 93 -255 24 -27 12
-31 -17 -5 -20 17 -20 17 0 -10 10 -15 25 -25 32 -23 7 3 11 1 8 -4 -3 -4 6
-19 19 -31 14 -13 25 -18 25 -12 0 7 5 12 11 12 6 0 8 -7 5 -16 -4 -10 -2 -13
6 -8 8 5 9 2 5 -10 -4 -10 -3 -15 3 -11 6 4 10 -11 10 -37 0 -40 -4 -47 -70
-109 -53 -50 -77 -65 -95 -63 -14 1 -23 -2 -20 -6 3 -5 12 -7 21 -3 12 4 12 0
-2 -24 -28 -47 -13 -80 48 -107 55 -24 49 -36 -18 -36 -67 0 -118 19 -137 51
-25 45 -21 73 16 112 32 34 32 37 21 74 l-12 38 5 -42 c3 -25 1 -43 -4 -43 -5
0 -24 22 -42 50 -18 27 -37 52 -43 56 -5 4 -2 -5 7 -20 16 -24 16 -28 1 -53
l-17 -28 20 23 c11 12 22 18 25 13 3 -5 -1 -14 -9 -21 -8 -7 -15 -17 -15 -22
0 -6 9 0 20 13 l19 24 1 -23 c0 -13 4 -20 10 -17 18 11 10 -11 -10 -30 -11
-10 -20 -24 -20 -32 0 -8 -8 -13 -17 -11 -18 3 -42 56 -43 93 0 11 -5 27 -10
35 -13 19 -4 -120 10 -171 16 -56 11 -92 -20 -139 -19 -29 -26 -47 -18 -51 7
-4 4 -8 -7 -10 -24 -5 -83 -162 -98 -261 -6 -43 -15 -78 -19 -78 -11 0 -34 49
-41 87 -12 63 37 193 98 262 44 49 67 100 59 130 l-7 26 -6 -30 c-5 -22 -20
-38 -56 -62 -141 -89 -152 -105 -119 -177 19 -40 21 -96 4 -96 -16 0 -77 80
-88 115 -21 72 24 144 134 214 40 25 79 56 85 68 7 12 16 20 21 17 12 -8 10
26 -6 82 -8 27 -17 66 -20 88 -4 21 -8 42 -11 46 -7 11 15 79 46 144 24 48 28
66 20 86 -12 32 -23 126 -25 211 -1 63 1 68 39 115 21 27 42 51 46 54 12 10
30 51 25 58 -3 4 -1 14 4 22 5 8 2 26 -6 44 -21 48 -54 203 -54 254 1 61 22
86 133 152 l87 52 94 141 c167 253 285 358 467 416 123 39 248 31 434 -28 50
-16 125 -37 167 -47 76 -17 77 -18 71 -46 -3 -16 -1 -28 5 -28 17 0 24 106 12
167 -22 102 -112 164 -217 149 -68 -9 -50 1 33 20 107 23 141 12 188 -62 58
-94 70 -189 32 -265 -9 -18 -16 -33 -16 -33 0 -1 33 -1 73 -2 l72 0 -57 10
c-32 5 -58 12 -58 16 0 17 31 32 53 26 33 -8 78 -46 71 -58 -4 -7 -2 -8 4 -4
7 4 12 3 12 -2 0 -5 11 -14 24 -20 43 -19 151 -129 175 -178 19 -36 25 -68 28
-133 3 -89 24 -160 68 -231 32 -51 116 -125 158 -141 64 -23 56 -62 -13 -62
-30 0 -38 -2 -27 -8 9 -5 20 -33 26 -62 12 -59 -2 -131 -38 -192 -11 -19 -16
-37 -11 -40 10 -6 53 67 68 115 5 19 13 56 16 83 3 26 15 65 26 88 27 52 19
73 -36 94 -57 21 -139 101 -165 160 -13 29 -23 86 -30 161 -8 89 -16 128 -34
163 -24 47 -89 115 -158 166 -21 16 -45 41 -53 56 -10 20 -30 34 -72 49 l-57
21 -1 57 c-2 75 -36 163 -83 213 l-38 39 -89 0 c-60 -1 -107 -7 -143 -19z
m-1161 -1276 c10 -12 3 -24 -39 -68 -59 -63 -81 -109 -81 -174 l-1 -48 -20 39
c-12 21 -23 62 -26 90 -8 76 12 108 89 145 35 17 64 31 64 31 1 0 7 -7 14 -15z
m870 -97 c0 -6 -6 -5 -15 2 -8 7 -15 14 -15 16 0 2 7 1 15 -2 8 -4 15 -11 15
-16z m890 -365 c0 -7 4 -13 9 -13 5 0 11 -10 13 -22 9 -53 -132 -145 -181
-118 -21 11 -24 55 -6 68 6 4 30 34 55 67 68 90 62 87 88 58 12 -15 22 -32 22
-40z m-187 -21 c-3 -12 -9 -19 -14 -16 -5 3 -3 14 3 24 15 24 19 21 11 -8z
m-34 -75 c-8 -13 -14 -16 -21 -9 -13 13 -4 29 16 29 12 0 13 -5 5 -20z m-1699
-32 c-5 -14 -6 -35 -1 -47 13 -37 33 -171 30 -198 -3 -20 -11 -26 -37 -28 -25
-3 -39 3 -61 26 -59 59 -50 150 22 226 48 51 61 57 47 21z m1916 -13 c-19 -37
-115 -71 -149 -53 -12 6 -15 10 -7 9 8 -1 24 2 35 6 11 4 34 13 50 19 17 6 41
19 54 29 32 24 34 23 17 -10z m-208 -67 c-3 -3 -9 2 -12 12 -6 14 -5 15 5 6 7
-7 10 -15 7 -18z m-838 -189 c-7 -25 -17 -43 -22 -40 -6 4 -7 -2 -3 -15 4 -13
2 -21 -5 -21 -7 0 -9 -8 -5 -21 4 -13 1 -27 -10 -39 -11 -12 -15 -31 -13 -56
3 -34 7 -39 37 -47 34 -8 34 -8 28 -57 -5 -40 -1 -63 21 -117 16 -38 34 -88
42 -113 7 -25 17 -49 21 -55 13 -19 35 -225 23 -225 -2 0 -10 16 -18 35 -8 19
-24 45 -36 57 -16 17 -128 195 -157 250 -3 6 9 3 72 -16 11 -3 0 3 -25 15 -62
29 -76 43 -122 123 -38 65 -40 70 -23 82 10 7 22 11 28 7 6 -3 7 -1 3 5 -3 6
-1 14 6 19 41 26 80 109 85 178 5 79 13 115 25 115 9 0 9 3 0 12 -7 7 -12 18
-12 26 0 8 15 0 36 -21 l37 -36 -13 -45z m1131 -49 c-10 -9 -11 -8 -5 6 3 10
9 15 12 12 3 -3 0 -11 -7 -18z m-1453 -109 l-3 -23 -14 24 c-7 14 -8 21 -2 17
7 -5 11 2 12 16 1 17 3 18 6 6 2 -10 3 -28 1 -40z m1481 -18 c0 -10 -3 -8 -9
5 -12 27 -12 43 0 25 5 -8 9 -22 9 -30z m-1774 -10 c-16 -16 -34 -30 -39 -30
-12 1 49 60 61 60 4 0 -6 -13 -22 -30z m298 -8 c3 8 6 6 6 -4 1 -10 -5 -18
-11 -18 -10 0 -10 -2 0 -9 11 -7 10 -9 -3 -14 -11 -5 -14 -3 -9 5 5 8 2 9 -10
5 -10 -4 -23 -7 -29 -8 -7 0 -3 -4 8 -9 16 -7 12 -9 -19 -9 -39 -1 -39 -1 -20
18 10 10 22 16 27 14 4 -2 16 -1 28 2 19 6 19 8 4 33 l-16 27 20 -23 c13 -15
21 -18 24 -10z m-43 -10 c0 -15 -2 -15 -10 -2 -13 20 -13 33 0 25 6 -3 10 -14
10 -23z m1394 12 c3 -8 2 -12 -4 -9 -6 3 -10 10 -10 16 0 14 7 11 14 -7z
m-1885 -11 c-8 -10 -19 -21 -25 -25 -6 -4 -19 -29 -29 -55 -23 -63 -32 -72
-41 -39 -10 43 4 73 49 105 48 34 66 39 46 14z m136 -12 c-3 -5 0 -13 6 -17 6
-3 15 -1 19 6 4 7 13 9 20 5 14 -9 -35 -54 -60 -55 -8 0 -31 -10 -50 -21 l-35
-21 23 24 c12 14 19 27 16 31 -4 4 6 12 23 19 16 7 28 19 26 26 -3 6 0 12 7
12 6 0 9 -4 5 -9z m1836 -14 c-10 -9 -11 -8 -5 6 3 10 9 15 12 12 3 -3 0 -11
-7 -18z m-61 3 c0 -5 -2 -10 -4 -10 -3 0 -8 5 -11 10 -3 6 -1 10 4 10 6 0 11
-4 11 -10z m100 6 c0 -3 -4 -8 -10 -11 -5 -3 -10 -1 -10 4 0 6 5 11 10 11 6 0
10 -2 10 -4z m-330 -16 c0 -5 -2 -10 -4 -10 -3 0 -8 5 -11 10 -3 6 -1 10 4 10
6 0 11 -4 11 -10z m40 -30 c0 -15 -26 -23 -41 -14 -9 5 -7 10 7 15 27 11 34
10 34 -1z m-1100 -34 c0 -8 7 -16 15 -19 8 -4 24 -25 35 -48 18 -34 19 -43 8
-50 -10 -7 -10 -9 3 -9 23 0 48 -32 127 -167 40 -67 77 -125 82 -128 6 -4 23
-33 39 -66 15 -32 22 -54 15 -48 -11 9 -20 7 -39 -5 -17 -11 -23 -12 -19 -3 6
16 -70 39 -85 24 -6 -6 -17 -2 -32 12 -26 24 -49 27 -49 7 0 -11 -8 -10 -40 5
-21 10 -46 19 -55 19 -8 0 -15 4 -15 9 0 5 -7 8 -16 7 -18 -1 -18 1 -30 109
-3 33 -10 62 -14 65 -5 3 -10 33 -12 67 -2 33 -6 59 -9 57 -4 -2 -9 16 -11 41
-2 25 1 46 6 48 5 2 1 15 -9 30 -17 26 -17 27 6 36 61 23 99 26 99 7z m276 -1
c-4 -24 -16 -30 -16 -7 0 12 4 22 9 22 5 0 8 -7 7 -15z m430 -26 c32 -11 69
-23 82 -26 19 -5 34 -26 15 -21 -9 1 -31 -7 -127 -51 l-69 -31 7 46 c3 26 6
60 6 75 0 35 8 36 86 8z m112 -236 c-5 -156 -7 -178 -23 -190 -11 -7 -23 -13
-28 -13 -6 0 -15 -7 -22 -17 -7 -9 -19 -14 -27 -10 -18 6 -96 231 -100 287 -3
33 0 36 57 67 58 32 106 50 134 52 11 1 13 -30 9 -176z m267 117 c-3 -5 -11
-10 -16 -10 -6 0 -7 5 -4 10 3 6 11 10 16 10 6 0 7 -4 4 -10z m-1746 -209 c1
-27 -2 -51 -6 -54 -4 -3 -9 9 -10 26 -1 18 -3 49 -5 71 -4 31 -2 35 7 23 6 -9
12 -38 14 -66z m-59 -57 c0 -31 -36 -38 -60 -11 -26 28 -25 45 7 91 l26 40 13
-50 c7 -27 13 -59 14 -70z m26 -99 c-40 -43 -58 -104 -54 -179 3 -65 2 -66
-14 -46 -25 31 -39 90 -30 125 8 28 114 147 120 134 2 -4 -8 -19 -22 -34z m0
-137 c-1 -83 2 -97 23 -126 26 -37 23 -50 -7 -31 -51 32 -68 129 -36 209 9 22
17 40 19 40 2 0 2 -42 1 -92z m34 82 c0 -5 -2 -10 -4 -10 -3 0 -8 5 -11 10 -3
6 -1 10 4 10 6 0 11 -4 11 -10z m2100 -72 c1 -24 7 -60 14 -80 l14 -38 -28 0
c-59 0 -78 63 -39 126 28 45 39 43 39 -8z m-2113 -50 c-3 -7 -5 -2 -5 12 0 14
2 19 5 13 2 -7 2 -19 0 -25z m2029 -135 c-10 -10 -19 5 -10 18 6 11 8 11 12 0
2 -7 1 -15 -2 -18z"/>
<path d="M1055 1090 c3 -5 8 -10 11 -10 2 0 4 5 4 10 0 6 -5 10 -11 10 -5 0
-7 -4 -4 -10z"/>
<path d="M816 817 c3 -10 9 -15 12 -12 3 3 0 11 -7 18 -10 9 -11 8 -5 -6z"/>
<path d="M1670 714 c0 -8 5 -12 10 -9 6 4 8 11 5 16 -9 14 -15 11 -15 -7z"/>
<path d="M1478 3093 c6 -2 18 -2 25 0 6 3 1 5 -13 5 -14 0 -19 -2 -12 -5z"/>
<path d="M1570 3089 c30 -14 83 -22 60 -10 -8 5 -31 11 -50 15 -32 6 -33 5
-10 -5z"/>
<path d="M1664 3055 c11 -8 27 -15 35 -15 10 1 7 6 -9 15 -33 19 -50 18 -26 0z"/>
<path d="M1720 3009 c0 -5 10 -9 21 -9 19 0 20 -2 8 -17 -12 -16 -12 -17 1 -7
8 7 24 14 35 16 14 3 7 7 -22 15 -24 6 -43 7 -43 2z"/>
<path d="M1870 2947 c0 -3 12 -12 26 -22 15 -9 23 -12 20 -6 -7 11 -46 35 -46
28z"/>
<path d="M1684 2918 l-19 -23 23 19 c21 18 27 26 19 26 -2 0 -12 -10 -23 -22z"/>
<path d="M1930 2906 c0 -2 8 -10 18 -17 15 -13 16 -12 3 4 -13 16 -21 21 -21
13z"/>
<path d="M969 2809 c-19 -16 -20 -18 -4 -10 34 17 51 31 39 31 -7 0 -22 -9
-35 -21z"/>
<path d="M910 2769 c-22 -18 -22 -19 -3 -10 12 6 25 16 28 21 9 15 3 12 -25
-11z"/>
<path d="M1663 2680 c-20 -30 -30 -56 -27 -67 3 -10 2 -14 -3 -8 -5 6 -69 -51
-167 -147 -87 -87 -154 -158 -149 -158 18 0 192 160 249 229 32 39 61 66 64
61 4 -6 21 22 38 61 18 40 31 73 30 75 -2 1 -18 -20 -35 -46z"/>
<path d="M517 2518 c-72 -97 -82 -141 -65 -283 10 -88 14 -101 25 -86 9 13 10
28 3 52 -6 19 -10 56 -10 82 0 59 28 187 45 207 16 19 37 60 31 60 -3 0 -16
-15 -29 -32z"/>
<path d="M634 2434 c-20 -31 -34 -58 -31 -60 3 -3 15 12 28 33 12 21 29 48 37
61 8 12 11 22 8 22 -3 0 -22 -25 -42 -56z"/>
<path d="M850 2366 c-80 -21 -195 -70 -231 -98 -43 -34 -50 -98 -19 -165 27
-60 32 -53 9 12 -25 72 -24 87 7 125 38 45 81 65 102 48 15 -11 15 -11 5 3
-11 14 -8 18 25 32 20 9 53 19 72 22 l35 6 -39 -20 c-21 -11 -44 -25 -50 -31
-7 -5 -16 -6 -20 -2 -4 4 -6 3 -5 -3 2 -5 -9 -29 -24 -53 -30 -47 -77 -182
-52 -148 8 11 15 25 15 32 0 24 40 101 72 136 18 21 54 48 81 62 35 18 43 26
30 30 -10 3 0 3 22 1 22 -2 31 -1 20 2 -15 5 -10 9 25 19 25 6 36 12 25 12
-11 0 -58 -10 -105 -22z"/>
<path d="M2225 2279 c5 -37 16 -163 21 -243 2 -27 11 -74 19 -103 15 -52 119
-223 198 -326 20 -27 37 -60 37 -74 0 -40 -40 -110 -93 -165 -45 -47 -47 -50
-22 -44 42 11 114 103 136 174 15 53 5 79 -68 167 -27 33 -61 82 -76 108 l-26
48 25 9 c14 6 36 13 49 16 38 9 32 -22 -7 -46 -27 -16 -29 -20 -13 -20 35 0
65 28 65 61 0 33 -19 38 -66 15 -16 -8 -39 -17 -51 -21 -36 -10 -29 26 12 71
47 53 69 122 61 191 -3 30 -13 64 -21 77 -8 12 -12 26 -8 30 5 4 4 6 -2 5 -5
-2 -21 3 -35 11 -23 12 -24 12 -11 -3 20 -25 -4 -21 -28 4 -20 21 -20 21 -22
-107 -1 -71 -2 -145 -2 -164 -1 -19 2 -44 7 -55 4 -11 1 -9 -7 5 -7 14 -19 68
-25 120 -6 52 -17 136 -22 185 -6 50 -15 94 -20 99 -6 6 -8 -5 -5 -25z m165
-133 c23 -83 -7 -231 -43 -209 -6 4 -8 0 -4 -11 4 -9 3 -15 -2 -11 -5 3 -12
-1 -14 -7 -3 -7 -3 50 0 127 4 111 8 143 20 152 22 17 28 11 43 -41z"/>
<path d="M782 2190 c-70 -57 -86 -80 -19 -29 77 60 99 79 90 79 -5 0 -36 -23
-71 -50z"/>
<path d="M2211 2105 c0 -11 6 -31 14 -45 18 -31 18 -16 0 30 -9 23 -14 28 -14
15z"/>
<path d="M1761 2043 c-1 -6 -4 -20 -7 -30 -5 -17 -5 -17 6 0 6 10 9 23 6 30
-3 9 -5 9 -5 0z"/>
<path d="M1100 1910 c0 -11 42 -31 49 -24 2 2 -2 10 -9 19 -14 17 -40 20 -40
5z"/>
<path d="M462 1772 l-22 -47 25 28 c14 15 25 37 25 48 0 26 -2 24 -28 -29z"/>
<path d="M503 1770 c0 -30 2 -43 4 -27 2 15 2 39 0 55 -2 15 -4 2 -4 -28z"/>
<path d="M957 1786 c52 -58 52 -165 1 -232 l-22 -29 22 19 c34 30 56 97 47
153 -6 47 -48 123 -67 123 -6 0 3 -15 19 -34z"/>
<path d="M1690 1763 c0 0 15 -10 33 -21 33 -19 33 -19 32 1 -1 15 -9 20 -33
21 -18 1 -32 0 -32 -1z"/>
<path d="M1661 1734 c0 -11 3 -14 6 -6 3 7 2 16 -1 19 -3 4 -6 -2 -5 -13z"/>
<path d="M816 1728 c3 -5 10 -6 15 -3 13 9 11 12 -6 12 -8 0 -12 -4 -9 -9z"/>
<path d="M1681 1724 c0 -11 3 -14 6 -6 3 7 2 16 -1 19 -3 4 -6 -2 -5 -13z"/>
<path d="M2120 1716 c0 -2 8 -10 18 -17 15 -13 16 -12 3 4 -13 16 -21 21 -21
13z"/>
<path d="M912 1645 c0 -16 2 -22 5 -12 2 9 2 23 0 30 -3 6 -5 -1 -5 -18z"/>
<path d="M2350 1630 c0 -6 6 -13 14 -16 9 -3 12 -12 9 -21 -4 -11 -2 -14 5 -9
7 4 12 3 12 -3 0 -5 -4 -13 -10 -16 -6 -4 0 -21 15 -43 27 -39 32 -80 14 -115
-11 -21 -11 -21 7 -4 25 24 22 92 -7 163 -20 50 -59 92 -59 64z"/>
<path d="M571 1514 c0 -11 3 -14 6 -6 3 7 2 16 -1 19 -3 4 -6 -2 -5 -13z"/>
<path d="M580 1448 c-3 -26 -1 -43 3 -39 5 5 7 26 5 47 l-3 39 -5 -47z"/>
<path d="M483 1430 c0 -25 2 -35 4 -22 2 12 2 32 0 45 -2 12 -4 2 -4 -23z"/>
<path d="M1442 1453 c16 -3 40 -20 58 -41 32 -39 41 -33 13 8 -23 34 -33 40
-68 38 -30 -1 -30 -1 -3 -5z"/>
<path d="M560 1365 c-7 -9 -10 -18 -7 -21 3 -3 10 4 17 15 13 25 8 27 -10 6z"/>
<path d="M2445 1299 c15 -7 11 -8 -18 -5 -20 3 -35 1 -32 -3 2 -5 -4 -11 -16
-14 -16 -4 -18 -3 -8 9 9 12 6 14 -20 14 -36 0 -39 -10 -12 -34 31 -28 81 -30
131 -4 24 13 45 28 47 33 2 6 -18 11 -45 12 -36 1 -42 -1 -27 -8z"/>
<path d="M2356 1227 c3 -10 9 -15 12 -12 3 3 0 11 -7 18 -10 9 -11 8 -5 -6z"/>
<path d="M2394 1178 c25 -36 20 -88 -15 -142 -16 -27 -37 -55 -44 -63 -36 -35
-30 -134 11 -183 36 -42 124 -64 124 -30 0 4 -8 6 -18 3 -71 -18 -140 95 -106
176 8 19 30 58 49 87 19 29 35 64 35 78 0 29 -29 96 -42 96 -5 0 -2 -10 6 -22z"/>
<path d="M1155 1180 c4 -6 11 -8 16 -5 14 9 11 15 -7 15 -8 0 -12 -5 -9 -10z"/>
<path d="M1280 1180 l-65 -7 78 -1 c46 -1 77 2 77 8 0 6 -6 9 -12 8 -7 -1 -42
-4 -78 -8z"/>
<path d="M1170 1114 c0 -5 15 -9 33 -10 17 0 55 -4 82 -8 41 -6 46 -5 31 5
-23 14 -146 25 -146 13z"/>
<path d="M1111 1044 c0 -11 3 -14 6 -6 3 7 2 16 -1 19 -3 4 -6 -2 -5 -13z"/>
<path d="M2341 1034 c0 -11 3 -14 6 -6 3 7 2 16 -1 19 -3 4 -6 -2 -5 -13z"/>
</g>
</svg>
